# xmcd
#
# Track frame offsets:
#	150
#	20932
#	41855
#	65677
#	82945
#	101787
#	126445
#	147517
#	165180
#	187482
#	208910
#	225475
#
# Disc length: 3327 seconds
#
# Revision: 14
# Processed by: cddbd v1.5.2PL0 Copyright (c) Steve Scherf et al.
# Submitted via: EasyCDDAExtractor 15.3.0.1
#
DISCID=b80cfd0c
DTITLE=Gloria Estefan - Mi Tierra
DYEAR=1993
DGENRE=Latin
TTITLE0=Con Los Años Que Me Quedan
TTITLE1=Mi Tierra
TTITLE2=Ayer
TTITLE3=Mi Buen Amor
TTITLE4=Tus Ojos
TTITLE5=No Hay Mal Que Por Bien No Venga
TTITLE6=¡Si Señor!...
TTITLE7=Volveras
TTITLE8=Montuno
TTITLE9=Hablemos El Mismo Idioma
TTITLE10=Hablas De Mi
TTITLE11=Tradicion
EXTD=1-143YEAR: 1993 ID3G: 86
EXTT0=
EXTT1=
EXTT2=
EXTT3=
EXTT4=
EXTT5=
EXTT6=
EXTT7=
EXTT8=
EXTT9=
EXTT10=
EXTT11=
PLAYORDER=
